<svg xmlns="http://www.w3.org/2000/svg" width="24" height="24" viewBox="0 0 24 24" fill="none">
  <path fill="currentColor" d="M12 0C5.372 0 0 5.373 0 12c0 5.303 3.438 9.8 8.207 11.387.6.11.793-.26.793-.577 0-.285-.01-1.04-.015-2.04-3.338.724-4.042-1.61-4.042-1.61-.547-1.388-1.335-1.758-1.335-1.758-1.09-.745.083-.73.083-.73 1.204.085 1.838 1.238 1.838 1.238 1.07 1.832 2.807 1.303 3.492.997.108-.776.42-1.303.76-1.603-2.665-.304-5.467-1.334-5.467-5.93 0-1.31.468-2.382 1.235-3.222-.123-.303-.535-1.524.117-3.176 0 0 1.007-.322 3.3 1.23A11.526 11.526 0 0 1 12 5.8c1.02.004 2.045.137 3.003.4 2.292-1.552 3.297-1.23 3.297-1.23.654 1.652.24 2.873.118 3.176.77.84 1.233 1.912 1.233 3.222 0 4.608-2.807 5.624-5.478 5.92.43.37.812 1.102.812 2.222 0 1.604-.015 2.894-.015 3.287 0 .319.192.693.798.575C20.565 21.797 24 17.3 24 12 24 5.373 18.627 0 12 0z"/>
</svg>
