<svg xmlns="http://www.w3.org/2000/svg" width="24" height="24" viewBox="0 0 24 24" fill="none">
  <path fill="currentColor" d="M7.75 0h8.5A7.75 7.75 0 0 1 24 7.75v8.5A7.75 7.75 0 0 1 16.25 24h-8.5A7.75 7.75 0 0 1 0 16.25v-8.5A7.75 7.75 0 0 1 7.75 0zm0 2A5.75 5.75 0 0 0 2 7.75v8.5A5.75 5.75 0 0 0 7.75 22h8.5A5.75 5.75 0 0 0 22 16.25v-8.5A5.75 5.75 0 0 0 16.25 2h-8.5zM12 5.75a6.25 6.25 0 1 1 0 12.5 6.25 6.25 0 0 1 0-12.5zm0 2A4.25 4.25 0 1 0 12 16.5 4.25 4.25 0 0 0 12 7.75zM17.5 5.5a1 1 0 1 1 0 2 1 1 0 0 1 0-2z"/>
</svg>
