<svg xmlns="http://www.w3.org/2000/svg" width="24" height="24" viewBox="0 0 24 24" fill="none">
  <path fill="currentColor" d="M22.225 0H1.771C.792 0 0 .772 0 1.728v20.544C0 23.229.792 24 1.771 24h20.454C23.206 24 24 23.228 24 22.272V1.728C24 .772 23.206 0 22.225 0zM7.188 20.452H3.556V9h3.632v11.452zM5.372 7.49a2.102 2.102 0 1 1 0-4.205 2.103 2.103 0 0 1 0 4.205zM20.45 20.452h-3.633v-5.625c0-1.34-.027-3.063-1.867-3.063-1.87 0-2.156 1.46-2.156 2.965v5.723H9.158V9h3.481v1.564h.05c.487-.923 1.677-1.89 3.453-1.89 3.7 0 4.386 2.437 4.386 5.608v6.17z"/>
</svg>
